<mxfile host="app.diagrams.net" modified="2022-11-16T06:49:22.233Z" agent="5.0 (Macintosh; Intel Mac OS X 10_15_7) AppleWebKit/537.36 (KHTML, like Gecko) Chrome/107.0.0.0 Safari/537.36" etag="_7SiOY_ZHbLz4znRnS8F" version="20.5.1" type="github">
  <diagram id="C6dXVvI5L8myRGvcJ0af" name="第 1 页">
    <mxGraphModel dx="946" dy="547" grid="0" gridSize="10" guides="1" tooltips="1" connect="1" arrows="1" fold="1" page="1" pageScale="1" pageWidth="827" pageHeight="1169" math="0" shadow="0">
      <root>
        <mxCell id="0" />
        <mxCell id="1" parent="0" />
        <mxCell id="GtvidikgvhJZN8bttyPE-1" value="AbstractCoroutine&lt;br&gt;协程构建器创建的其子类类型的协程对象，维护了协程上下文" style="whiteSpace=wrap;html=1;aspect=fixed;" vertex="1" parent="1">
          <mxGeometry x="445" y="204" width="151" height="151" as="geometry" />
        </mxCell>
        <mxCell id="GtvidikgvhJZN8bttyPE-2" value="" style="whiteSpace=wrap;html=1;aspect=fixed;fillColor=none;" vertex="1" parent="1">
          <mxGeometry x="361.5" y="120.5" width="318" height="318" as="geometry" />
        </mxCell>
        <mxCell id="GtvidikgvhJZN8bttyPE-3" value="SuspendLambad&lt;br&gt;编译期生成的其子类对象，封装了协程代码块中的代码和执行逻辑" style="text;html=1;strokeColor=none;fillColor=none;align=center;verticalAlign=middle;whiteSpace=wrap;rounded=0;" vertex="1" parent="1">
          <mxGeometry x="443.5" y="142" width="154" height="30" as="geometry" />
        </mxCell>
        <mxCell id="GtvidikgvhJZN8bttyPE-4" value="" style="whiteSpace=wrap;html=1;aspect=fixed;fillColor=none;" vertex="1" parent="1">
          <mxGeometry x="297" y="56" width="447" height="447" as="geometry" />
        </mxCell>
        <mxCell id="GtvidikgvhJZN8bttyPE-5" value="DispatchedContinuation&lt;br&gt;协程调度" style="text;html=1;strokeColor=none;fillColor=none;align=center;verticalAlign=middle;whiteSpace=wrap;rounded=0;" vertex="1" parent="1">
          <mxGeometry x="490.5" y="76" width="60" height="30" as="geometry" />
        </mxCell>
      </root>
    </mxGraphModel>
  </diagram>
</mxfile>
